<svg width="489" height="162" viewBox="0 0 489 162" fill="none" xmlns="http://www.w3.org/2000/svg">
<path d="M32.616 51.776C35.016 51.776 36.888 50.888 38.232 49.112C39.624 47.336 40.32 44.888 40.32 41.768C40.32 38.168 39.456 35.24 37.728 32.984C36 30.728 33.456 29.6 30.096 29.6C27.984 29.6 26.016 30.248 24.192 31.544V72.152L37.08 74.744L34.488 80H3.168V75.392L9.936 70.064V31.04L1.872 28.592L4.464 23.408H17.496C21.672 23.408 25.776 23.264 29.808 22.976C32.688 22.784 34.848 22.688 36.288 22.688C40.128 22.688 43.536 23.432 46.512 24.92C49.488 26.36 51.792 28.376 53.424 30.968C55.056 33.512 55.872 36.368 55.872 39.536C55.872 42.992 54.504 46.256 51.768 49.328C49.08 52.352 45.672 54.752 41.544 56.528C37.464 58.256 33.48 59.024 29.592 58.832L26.568 56.96L29.16 51.776H32.616ZM142.194 79.928H125.922L112.674 55.232L109.578 53.36L111.522 49.472H114.69C117.042 49.472 118.89 48.68 120.234 47.096C121.626 45.512 122.322 43.304 122.322 40.472C122.322 37.256 121.458 34.64 119.73 32.624C118.05 30.56 115.578 29.528 112.314 29.528C110.25 29.528 108.354 30.128 106.626 31.328V72.44L114.762 74.672L112.17 79.928H85.6024V75.32L92.3704 69.488V30.68L84.3064 28.52L86.8984 23.336H99.9304C104.01 23.336 108.066 23.192 112.098 22.904C114.978 22.712 117.114 22.616 118.506 22.616C122.298 22.616 125.658 23.288 128.586 24.632C131.562 25.928 133.842 27.728 135.426 30.032C137.058 32.288 137.874 34.832 137.874 37.664C137.874 40.976 136.434 44.072 133.554 46.952C130.674 49.784 127.098 51.968 122.826 53.504L128.874 55.16L137.658 71.432L144.858 74.672L142.194 79.928ZM206.949 21.968C212.613 21.968 217.605 23.192 221.925 25.64C226.245 28.088 229.581 31.472 231.933 35.792C234.285 40.112 235.461 45.008 235.461 50.48C235.461 56.096 233.661 61.28 230.061 66.032C226.509 70.784 222.093 74.552 216.813 77.336C211.533 80.072 206.541 81.44 201.837 81.44C196.221 81.44 191.253 80.24 186.933 77.84C182.661 75.392 179.325 72.008 176.925 67.688C174.573 63.368 173.397 58.472 173.397 53C173.397 47.384 175.173 42.2 178.725 37.448C182.277 32.648 186.693 28.88 191.973 26.144C197.253 23.36 202.245 21.968 206.949 21.968ZM202.773 30.968C200.229 30.968 197.901 31.784 195.789 33.416C193.677 35 191.997 37.208 190.749 40.04C189.549 42.872 188.949 46.04 188.949 49.544C188.949 53.768 189.573 57.608 190.821 61.064C192.069 64.52 193.965 67.28 196.509 69.344C199.101 71.408 202.269 72.44 206.013 72.44C208.557 72.44 210.885 71.648 212.997 70.064C215.109 68.432 216.789 66.2 218.037 63.368C219.285 60.536 219.909 57.368 219.909 53.864C219.909 49.64 219.285 45.8 218.037 42.344C216.789 38.84 214.869 36.08 212.277 34.064C209.685 32 206.517 30.968 202.773 30.968ZM297.146 51.776C299.546 51.776 301.418 50.888 302.762 49.112C304.154 47.336 304.85 44.888 304.85 41.768C304.85 38.168 303.986 35.24 302.258 32.984C300.53 30.728 297.986 29.6 294.626 29.6C292.514 29.6 290.546 30.248 288.722 31.544V72.152L301.61 74.744L299.018 80H267.698V75.392L274.466 70.064V31.04L266.402 28.592L268.994 23.408H282.026C286.202 23.408 290.306 23.264 294.338 22.976C297.218 22.784 299.378 22.688 300.818 22.688C304.658 22.688 308.066 23.432 311.042 24.92C314.018 26.36 316.322 28.376 317.954 30.968C319.586 33.512 320.402 36.368 320.402 39.536C320.402 42.992 319.034 46.256 316.298 49.328C313.61 52.352 310.202 54.752 306.074 56.528C301.994 58.256 298.01 59.024 294.122 58.832L291.098 56.96L293.69 51.776H297.146ZM396.284 80H350.132V75.392L356.9 70.064V30.896L348.836 28.592L351.428 23.408H395.564L401.18 22.112V40.976L396.644 42.92L387.716 29.6H371.156V48.032H378.932L384.188 40.256H388.796V60.992L383.54 63.584L378.788 54.152H371.156V73.808H387.068L397.364 59.048L401.9 60.92V81.296L396.284 80ZM481.263 80.072H434.535V75.464L441.303 70.136V30.608L433.239 28.592L435.831 23.408H462.399V27.944L455.559 33.272V73.808H471.039L482.343 57.608L486.879 59.48V81.368L481.263 80.072Z" fill="#5D0000"/>
<path d="M4.242 123.458C4.242 124.97 4.438 126.314 4.83 127.49C5.222 128.638 5.768 129.618 6.468 130.43C7.168 131.242 7.994 131.858 8.946 132.278C9.898 132.698 10.92 132.908 12.012 132.908C13.244 132.908 14.294 132.684 15.162 132.236C16.058 131.76 16.786 131.186 17.346 130.514C17.934 129.842 18.396 129.198 18.732 128.582L20.076 129.548C19.572 130.444 18.942 131.27 18.186 132.026C17.458 132.754 16.576 133.342 15.54 133.79C14.532 134.21 13.342 134.42 11.97 134.42C10.094 134.42 8.372 133.972 6.804 133.076C5.264 132.18 4.046 130.906 3.15 129.254C2.254 127.574 1.806 125.614 1.806 123.374C1.806 121.162 2.226 119.216 3.066 117.536C3.906 115.856 5.054 114.54 6.51 113.588C7.966 112.636 9.604 112.16 11.424 112.16C12.852 112.16 14.112 112.412 15.204 112.916C16.296 113.392 17.22 114.12 17.976 115.1C18.732 116.052 19.292 117.228 19.656 118.628C20.048 120.028 20.244 121.652 20.244 123.5H3.486V122.03H18.606L17.766 122.702C17.71 121.19 17.542 119.874 17.262 118.754C17.01 117.606 16.618 116.668 16.086 115.94C15.582 115.184 14.938 114.624 14.154 114.26C13.398 113.868 12.488 113.672 11.424 113.672C10.388 113.672 9.436 113.896 8.568 114.344C7.7 114.792 6.944 115.45 6.3 116.318C5.656 117.158 5.152 118.18 4.788 119.384C4.424 120.588 4.242 121.946 4.242 123.458ZM44.0472 114.512C44.0192 114.372 43.8232 114.274 43.4592 114.218C43.1232 114.134 42.6892 114.064 42.1572 114.008C41.6252 113.952 41.0792 113.924 40.5192 113.924H40.4352V112.58H48.4152V113.924H48.3312C47.8552 113.924 47.4212 113.98 47.0292 114.092C46.6372 114.176 46.3012 114.33 46.0212 114.554C45.7412 114.75 45.5172 115.044 45.3492 115.436L38.3772 134H36.1092L29.0112 115.352C28.8712 114.96 28.6752 114.666 28.4232 114.47C28.1712 114.274 27.8492 114.134 27.4572 114.05C27.0652 113.966 26.6172 113.924 26.1132 113.924H25.9872V112.58H34.7652V113.924H34.6812C34.0932 113.924 33.5192 113.938 32.9592 113.966C32.3992 113.994 31.9372 114.036 31.5732 114.092C31.2092 114.148 31.0272 114.232 31.0272 114.344L37.8312 132.572L37.4112 132.53L44.0472 114.512ZM74.5897 123.29C74.5897 125.474 74.1417 127.406 73.2457 129.086C72.3777 130.766 71.1737 132.082 69.6337 133.034C68.0937 133.958 66.3157 134.42 64.2997 134.42C62.3397 134.42 60.5757 133.958 59.0077 133.034C57.4677 132.082 56.2497 130.766 55.3537 129.086C54.4857 127.406 54.0517 125.474 54.0517 123.29C54.0517 121.638 54.3037 120.14 54.8077 118.796C55.3117 117.452 56.0257 116.29 56.9497 115.31C57.8737 114.302 58.9517 113.532 60.1837 113C61.4437 112.44 62.8157 112.16 64.2997 112.16C65.7837 112.16 67.1557 112.44 68.4157 113C69.6757 113.532 70.7677 114.302 71.6917 115.31C72.6157 116.29 73.3297 117.466 73.8337 118.838C74.3377 120.182 74.5897 121.666 74.5897 123.29ZM56.5717 123.29C56.5717 125.222 56.8797 126.916 57.4957 128.372C58.1397 129.828 59.0357 130.948 60.1837 131.732C61.3597 132.516 62.7317 132.908 64.2997 132.908C65.9237 132.908 67.3097 132.516 68.4577 131.732C69.6057 130.948 70.4877 129.828 71.1037 128.372C71.7477 126.916 72.0697 125.222 72.0697 123.29C72.0697 121.386 71.7477 119.706 71.1037 118.25C70.4877 116.794 69.6057 115.674 68.4577 114.89C67.3097 114.078 65.9237 113.672 64.2997 113.672C62.7317 113.672 61.3597 114.078 60.1837 114.89C59.0357 115.674 58.1397 116.794 57.4957 118.25C56.8797 119.678 56.5717 121.358 56.5717 123.29ZM87.5828 103.004V131.27C87.5828 131.858 87.9048 132.25 88.5488 132.446C89.1928 132.642 90.0048 132.74 90.9848 132.74H91.0688V134H81.7448V132.74H81.8288C82.8088 132.74 83.6208 132.642 84.2648 132.446C84.9088 132.25 85.2308 131.858 85.2308 131.27V106.112C85.2308 105.72 85.1188 105.426 84.8948 105.23C84.6708 105.006 84.3348 104.838 83.8868 104.726C83.4668 104.586 82.9068 104.46 82.2068 104.348L81.7028 104.264V103.004H87.5828ZM103.13 112.58V127.28C103.13 128.54 103.27 129.576 103.55 130.388C103.858 131.2 104.32 131.802 104.936 132.194C105.58 132.558 106.434 132.74 107.498 132.74C108.506 132.74 109.43 132.544 110.27 132.152C111.138 131.732 111.95 131.144 112.706 130.388C113.462 129.632 114.176 128.708 114.848 127.616L114.932 129.548C114.204 130.612 113.434 131.508 112.622 132.236C111.838 132.964 110.998 133.51 110.102 133.874C109.206 134.238 108.198 134.42 107.078 134.42C105.79 134.42 104.67 134.182 103.718 133.706C102.794 133.23 102.066 132.488 101.534 131.48C101.03 130.472 100.778 129.212 100.778 127.7V115.478C100.778 114.89 100.484 114.498 99.8963 114.302C99.3083 114.106 98.5103 113.98 97.5023 113.924L97.2503 113.882V112.58H103.13ZM116.78 112.58V131.27C116.78 131.634 116.92 131.928 117.2 132.152C117.508 132.376 117.914 132.53 118.418 132.614C118.95 132.698 119.552 132.74 120.224 132.74H120.35V134H114.512V129.296L114.428 129.17V115.478C114.428 114.89 114.12 114.498 113.504 114.302C112.888 114.078 112.006 113.952 110.858 113.924L110.522 113.882V112.58H116.78ZM125.889 114.092V112.79H126.183C126.995 112.79 127.681 112.734 128.241 112.622C128.829 112.51 129.277 112.3 129.585 111.992C129.893 111.656 130.047 111.194 130.047 110.606L131.475 112.58H138.363V114.092H125.889ZM132.105 128.036C132.105 129.156 132.273 130.08 132.609 130.808C132.973 131.508 133.449 132.026 134.037 132.362C134.653 132.67 135.353 132.824 136.137 132.824C136.725 132.824 137.243 132.768 137.691 132.656C138.139 132.516 138.545 132.39 138.909 132.278V133.79C138.657 133.902 138.363 134 138.027 134.084C137.719 134.196 137.369 134.28 136.977 134.336C136.613 134.392 136.221 134.42 135.801 134.42C134.765 134.42 133.785 134.224 132.861 133.832C131.937 133.44 131.181 132.768 130.593 131.816C130.033 130.864 129.753 129.59 129.753 127.994V113.168L130.005 112.874L130.089 106.868H132.105V128.036ZM149.941 106.868C149.381 106.868 148.919 106.7 148.555 106.364C148.191 106 148.009 105.524 148.009 104.936C148.009 104.32 148.191 103.844 148.555 103.508C148.919 103.172 149.381 103.004 149.941 103.004C150.501 103.004 150.963 103.172 151.327 103.508C151.691 103.844 151.873 104.32 151.873 104.936C151.873 105.524 151.691 106 151.327 106.364C150.963 106.7 150.501 106.868 149.941 106.868ZM151.453 112.58V131.27C151.453 131.858 151.775 132.25 152.419 132.446C153.063 132.642 153.875 132.74 154.855 132.74H154.939V134H145.615V132.74H145.699C146.679 132.74 147.491 132.642 148.135 132.446C148.779 132.25 149.101 131.858 149.101 131.27V115.688C149.101 115.128 148.863 114.736 148.387 114.512C147.911 114.288 147.141 114.092 146.077 113.924L145.615 113.84V112.58H151.453ZM182.748 123.29C182.748 125.474 182.3 127.406 181.404 129.086C180.536 130.766 179.332 132.082 177.792 133.034C176.252 133.958 174.474 134.42 172.458 134.42C170.498 134.42 168.734 133.958 167.166 133.034C165.626 132.082 164.408 130.766 163.512 129.086C162.644 127.406 162.21 125.474 162.21 123.29C162.21 121.638 162.462 120.14 162.966 118.796C163.47 117.452 164.184 116.29 165.108 115.31C166.032 114.302 167.11 113.532 168.342 113C169.602 112.44 170.974 112.16 172.458 112.16C173.942 112.16 175.314 112.44 176.574 113C177.834 113.532 178.926 114.302 179.85 115.31C180.774 116.29 181.488 117.466 181.992 118.838C182.496 120.182 182.748 121.666 182.748 123.29ZM164.73 123.29C164.73 125.222 165.038 126.916 165.654 128.372C166.298 129.828 167.194 130.948 168.342 131.732C169.518 132.516 170.89 132.908 172.458 132.908C174.082 132.908 175.468 132.516 176.616 131.732C177.764 130.948 178.646 129.828 179.262 128.372C179.906 126.916 180.228 125.222 180.228 123.29C180.228 121.386 179.906 119.706 179.262 118.25C178.646 116.794 177.764 115.674 176.616 114.89C175.468 114.078 174.082 113.672 172.458 113.672C170.89 113.672 169.518 114.078 168.342 114.89C167.194 115.674 166.298 116.794 165.654 118.25C165.038 119.678 164.73 121.358 164.73 123.29ZM190.232 134V132.74H190.274C190.946 132.74 191.534 132.698 192.038 132.614C192.57 132.53 192.976 132.376 193.256 132.152C193.564 131.928 193.718 131.634 193.718 131.27V115.688C193.718 115.296 193.606 115.002 193.382 114.806C193.158 114.61 192.822 114.442 192.374 114.302C191.954 114.162 191.394 114.036 190.694 113.924L190.232 113.84V112.58H195.944V117.116L196.07 117.326V132.278C196.07 132.39 196.224 132.474 196.532 132.53C196.868 132.586 197.274 132.642 197.75 132.698C198.226 132.726 198.66 132.74 199.052 132.74H199.178V134H190.232ZM213.332 134H204.386V132.74H204.47C204.862 132.74 205.282 132.726 205.73 132.698C206.206 132.67 206.612 132.628 206.948 132.572C207.312 132.488 207.494 132.404 207.494 132.32V119.3C207.494 118.04 207.354 117.004 207.074 116.192C206.794 115.38 206.332 114.792 205.688 114.428C205.072 114.036 204.204 113.84 203.084 113.84C202.104 113.84 201.166 114.05 200.27 114.47C199.402 114.862 198.576 115.45 197.792 116.234C197.036 116.99 196.308 117.9 195.608 118.964L195.524 117.074C196.308 115.982 197.092 115.072 197.876 114.344C198.688 113.616 199.556 113.07 200.48 112.706C201.404 112.342 202.412 112.16 203.504 112.16C204.82 112.16 205.954 112.398 206.906 112.874C207.858 113.35 208.586 114.092 209.09 115.1C209.594 116.08 209.846 117.34 209.846 118.88V131.27C209.846 131.634 209.986 131.928 210.266 132.152C210.574 132.376 210.98 132.53 211.484 132.614C212.016 132.698 212.604 132.74 213.248 132.74H213.332V134ZM234.683 121.148V122.576C233.115 122.772 231.715 122.996 230.483 123.248C229.251 123.472 228.187 123.752 227.291 124.088C226.395 124.424 225.653 124.816 225.065 125.264C224.505 125.712 224.071 126.23 223.763 126.818C223.483 127.378 223.343 128.036 223.343 128.792C223.343 129.632 223.511 130.36 223.847 130.976C224.183 131.592 224.673 132.082 225.317 132.446C225.961 132.782 226.745 132.95 227.669 132.95C228.789 132.95 229.783 132.698 230.651 132.194C231.547 131.662 232.317 130.976 232.961 130.136C233.605 129.296 234.123 128.372 234.515 127.364L234.641 129.464C234.165 130.444 233.563 131.312 232.835 132.068C232.135 132.824 231.309 133.412 230.357 133.832C229.433 134.224 228.397 134.42 227.249 134.42C226.045 134.42 224.953 134.196 223.973 133.748C223.021 133.272 222.265 132.614 221.705 131.774C221.145 130.934 220.865 129.954 220.865 128.834C220.865 127.658 221.145 126.65 221.705 125.81C222.293 124.97 223.161 124.256 224.309 123.668C225.485 123.08 226.927 122.59 228.635 122.198C230.371 121.778 232.387 121.428 234.683 121.148ZM234.221 134V129.422H234.095V118.838C234.095 117.494 233.899 116.458 233.507 115.73C233.115 114.974 232.555 114.442 231.827 114.134C231.099 113.826 230.203 113.672 229.139 113.672C227.655 113.672 226.437 113.938 225.485 114.47C224.533 114.974 223.777 115.618 223.217 116.402C223.189 116.15 223.203 115.926 223.259 115.73C223.315 115.506 223.399 115.296 223.511 115.1C223.651 114.876 223.805 114.708 223.973 114.596C224.169 114.456 224.379 114.372 224.603 114.344V118.124H222.125V114.596C222.517 114.232 223.049 113.868 223.721 113.504C224.393 113.14 225.191 112.832 226.115 112.58C227.039 112.3 228.075 112.16 229.223 112.16C230.175 112.16 231.085 112.272 231.953 112.496C232.821 112.692 233.591 113.042 234.263 113.546C234.935 114.022 235.467 114.666 235.859 115.478C236.251 116.29 236.447 117.298 236.447 118.502V131.27C236.447 131.634 236.587 131.928 236.867 132.152C237.175 132.376 237.581 132.53 238.085 132.614C238.617 132.698 239.219 132.74 239.891 132.74H239.933V134H234.221ZM259.644 112.328V114.848C259.448 114.764 259.224 114.708 258.972 114.68C258.748 114.624 258.51 114.596 258.258 114.596C258.034 114.568 257.796 114.554 257.544 114.554C256.928 114.554 256.354 114.652 255.822 114.848C255.318 115.016 254.842 115.31 254.394 115.73C253.946 116.122 253.526 116.64 253.134 117.284C252.742 117.9 252.336 118.656 251.916 119.552L251.832 117.62C252.308 116.528 252.868 115.576 253.512 114.764C254.156 113.952 254.87 113.322 255.654 112.874C256.466 112.398 257.334 112.16 258.258 112.16C258.538 112.16 258.804 112.174 259.056 112.202C259.336 112.23 259.532 112.272 259.644 112.328ZM246.456 134V132.74H246.498C247.506 132.74 248.332 132.642 248.976 132.446C249.62 132.25 249.942 131.858 249.942 131.27V115.688C249.942 115.296 249.83 115.002 249.606 114.806C249.382 114.61 249.046 114.442 248.598 114.302C248.178 114.162 247.618 114.036 246.918 113.924L246.456 113.84V112.58H252.168V117.704L252.294 117.62V131.396C252.294 131.76 252.49 132.04 252.882 132.236C253.274 132.432 253.736 132.572 254.268 132.656C254.828 132.712 255.318 132.74 255.738 132.74H256.41V134H246.456ZM278.114 132.404L277.736 133.664L276.686 134.63L268.832 115.352C268.692 114.96 268.482 114.666 268.202 114.47C267.95 114.274 267.614 114.134 267.194 114.05C266.802 113.966 266.326 113.924 265.766 113.924H265.724V112.58H274.628V113.924H274.544C273.984 113.924 273.424 113.938 272.864 113.966C272.304 113.994 271.828 114.036 271.436 114.092C271.072 114.12 270.89 114.19 270.89 114.302L278.114 132.404ZM278.66 133.286C277.96 135.022 277.26 136.548 276.56 137.864C275.888 139.18 275.174 140.258 274.418 141.098C273.69 141.966 272.878 142.61 271.982 143.03C271.114 143.478 270.148 143.702 269.084 143.702C268.412 143.702 267.824 143.618 267.32 143.45C266.844 143.282 266.48 143.114 266.228 142.946V140.594C266.312 140.622 266.48 140.692 266.732 140.804C267.012 140.944 267.362 141.07 267.782 141.182C268.23 141.322 268.692 141.392 269.168 141.392C269.924 141.392 270.624 141.266 271.268 141.014C271.912 140.79 272.556 140.356 273.2 139.712C273.844 139.068 274.488 138.158 275.132 136.982C275.804 135.834 276.518 134.35 277.274 132.53L277.526 131.984L284.246 114.848C284.246 114.652 284.078 114.498 283.742 114.386C283.406 114.246 282.972 114.134 282.44 114.05C281.936 113.966 281.418 113.924 280.886 113.924H280.76V112.58H288.74V113.924H288.698C288.278 113.924 287.872 113.98 287.48 114.092C287.088 114.176 286.738 114.358 286.43 114.638C286.122 114.89 285.856 115.268 285.632 115.772L278.66 133.286ZM309.299 112.58H326.141V114.008H309.299V112.58ZM328.115 106.868C327.555 106.868 327.093 106.7 326.729 106.364C326.365 106 326.183 105.524 326.183 104.936C326.183 104.32 326.365 103.844 326.729 103.508C327.093 103.172 327.555 103.004 328.115 103.004C328.647 103.004 329.095 103.172 329.459 103.508C329.851 103.844 330.047 104.32 330.047 104.936C330.047 105.524 329.851 106 329.459 106.364C329.095 106.7 328.647 106.868 328.115 106.868ZM323.747 134V132.74H324.125C324.573 132.74 325.035 132.726 325.511 132.698C325.987 132.642 326.393 132.572 326.729 132.488C327.093 132.404 327.275 132.292 327.275 132.152V115.772C327.275 115.492 327.205 115.24 327.065 115.016C326.953 114.792 326.771 114.61 326.519 114.47C326.267 114.302 325.945 114.19 325.553 114.134C325.161 114.05 324.713 114.008 324.209 114.008H323.747V112.58H329.627V131.27C329.627 131.858 329.949 132.25 330.593 132.446C331.237 132.642 332.049 132.74 333.029 132.74H333.113V134H323.747ZM320.387 134H309.509V132.74H309.971C311.091 132.74 311.973 132.642 312.617 132.446C313.289 132.25 313.625 131.858 313.625 131.27V109.304C313.625 107.624 313.905 106.28 314.465 105.272C315.053 104.264 315.823 103.536 316.775 103.088C317.755 102.612 318.833 102.374 320.009 102.374C320.597 102.374 321.157 102.416 321.689 102.5C322.221 102.556 322.655 102.654 322.991 102.794V104.432C322.739 104.32 322.445 104.222 322.109 104.138C321.801 104.026 321.465 103.942 321.101 103.886C320.765 103.83 320.387 103.802 319.967 103.802C319.155 103.802 318.455 103.97 317.867 104.306C317.279 104.642 316.817 105.202 316.481 105.986C316.173 106.77 316.019 107.876 316.019 109.304V132.278C316.019 132.362 316.173 132.446 316.481 132.53C316.817 132.586 317.279 132.642 317.867 132.698C318.455 132.726 319.113 132.74 319.841 132.74H320.387V134ZM339.072 114.092V112.79H339.366C340.178 112.79 340.864 112.734 341.424 112.622C342.012 112.51 342.46 112.3 342.768 111.992C343.076 111.656 343.23 111.194 343.23 110.606L344.658 112.58H351.546V114.092H339.072ZM345.288 128.036C345.288 129.156 345.456 130.08 345.792 130.808C346.156 131.508 346.632 132.026 347.22 132.362C347.836 132.67 348.536 132.824 349.32 132.824C349.908 132.824 350.426 132.768 350.874 132.656C351.322 132.516 351.728 132.39 352.092 132.278V133.79C351.84 133.902 351.546 134 351.21 134.084C350.902 134.196 350.552 134.28 350.16 134.336C349.796 134.392 349.404 134.42 348.984 134.42C347.948 134.42 346.968 134.224 346.044 133.832C345.12 133.44 344.364 132.768 343.776 131.816C343.216 130.864 342.936 129.59 342.936 127.994V113.168L343.188 112.874L343.272 106.868H345.288V128.036ZM358.798 134V132.74H358.84C359.512 132.74 360.1 132.698 360.604 132.614C361.136 132.53 361.542 132.376 361.822 132.152C362.13 131.928 362.284 131.634 362.284 131.27V115.688C362.284 115.296 362.172 115.002 361.948 114.806C361.724 114.61 361.388 114.442 360.94 114.302C360.52 114.162 359.96 114.036 359.26 113.924L358.798 113.84V112.58H364.51V117.116L364.636 117.326V132.278C364.636 132.39 364.79 132.474 365.098 132.53C365.434 132.586 365.84 132.642 366.316 132.698C366.792 132.726 367.226 132.74 367.618 132.74H367.744V134H358.798ZM381.898 134H372.952V132.74H373.036C373.428 132.74 373.848 132.726 374.296 132.698C374.772 132.67 375.178 132.628 375.514 132.572C375.878 132.488 376.06 132.404 376.06 132.32V119.3C376.06 118.04 375.92 117.004 375.64 116.192C375.36 115.38 374.898 114.792 374.254 114.428C373.638 114.036 372.77 113.84 371.65 113.84C370.67 113.84 369.732 114.05 368.836 114.47C367.968 114.862 367.142 115.45 366.358 116.234C365.602 116.99 364.874 117.9 364.174 118.964L364.09 117.074C364.874 115.982 365.658 115.072 366.442 114.344C367.254 113.616 368.122 113.07 369.046 112.706C369.97 112.342 370.978 112.16 372.07 112.16C373.386 112.16 374.52 112.398 375.472 112.874C376.424 113.35 377.152 114.092 377.656 115.1C378.16 116.08 378.412 117.34 378.412 118.88V131.27C378.412 131.634 378.552 131.928 378.832 132.152C379.14 132.376 379.546 132.53 380.05 132.614C380.582 132.698 381.17 132.74 381.814 132.74H381.898V134ZM391.405 123.458C391.405 124.97 391.601 126.314 391.993 127.49C392.385 128.638 392.931 129.618 393.631 130.43C394.331 131.242 395.157 131.858 396.109 132.278C397.061 132.698 398.083 132.908 399.175 132.908C400.407 132.908 401.457 132.684 402.325 132.236C403.221 131.76 403.949 131.186 404.509 130.514C405.097 129.842 405.559 129.198 405.895 128.582L407.239 129.548C406.735 130.444 406.105 131.27 405.349 132.026C404.621 132.754 403.739 133.342 402.703 133.79C401.695 134.21 400.505 134.42 399.133 134.42C397.257 134.42 395.535 133.972 393.967 133.076C392.427 132.18 391.209 130.906 390.313 129.254C389.417 127.574 388.969 125.614 388.969 123.374C388.969 121.162 389.389 119.216 390.229 117.536C391.069 115.856 392.217 114.54 393.673 113.588C395.129 112.636 396.767 112.16 398.587 112.16C400.015 112.16 401.275 112.412 402.367 112.916C403.459 113.392 404.383 114.12 405.139 115.1C405.895 116.052 406.455 117.228 406.819 118.628C407.211 120.028 407.407 121.652 407.407 123.5H390.649V122.03H405.769L404.929 122.702C404.873 121.19 404.705 119.874 404.425 118.754C404.173 117.606 403.781 116.668 403.249 115.94C402.745 115.184 402.101 114.624 401.317 114.26C400.561 113.868 399.651 113.672 398.587 113.672C397.551 113.672 396.599 113.896 395.731 114.344C394.863 114.792 394.107 115.45 393.463 116.318C392.819 117.158 392.315 118.18 391.951 119.384C391.587 120.588 391.405 121.946 391.405 123.458ZM428.757 128.624C428.757 127.868 428.589 127.238 428.253 126.734C427.945 126.23 427.497 125.824 426.909 125.516C426.349 125.18 425.705 124.9 424.977 124.676C424.277 124.424 423.549 124.186 422.793 123.962C421.953 123.738 421.127 123.486 420.315 123.206C419.531 122.926 418.803 122.562 418.131 122.114C417.487 121.666 416.969 121.106 416.577 120.434C416.185 119.762 415.989 118.922 415.989 117.914C415.989 116.766 416.283 115.772 416.871 114.932C417.459 114.064 418.285 113.392 419.349 112.916C420.441 112.412 421.729 112.16 423.213 112.16C424.333 112.16 425.313 112.258 426.153 112.454C427.021 112.65 427.749 112.902 428.337 113.21C428.925 113.49 429.401 113.77 429.765 114.05V117.62H427.287V114.134C427.427 114.19 427.553 114.274 427.665 114.386C427.805 114.47 427.917 114.582 428.001 114.722C428.085 114.834 428.141 114.974 428.169 115.142C428.197 115.282 428.211 115.422 428.211 115.562C427.847 115.17 427.413 114.834 426.909 114.554C426.433 114.274 425.873 114.064 425.229 113.924C424.613 113.756 423.941 113.672 423.213 113.672C421.561 113.672 420.315 114.05 419.475 114.806C418.635 115.562 418.215 116.514 418.215 117.662C418.215 118.39 418.383 119.006 418.719 119.51C419.055 119.986 419.503 120.378 420.063 120.686C420.623 120.966 421.267 121.218 421.995 121.442C422.723 121.666 423.465 121.89 424.221 122.114C425.033 122.366 425.845 122.646 426.657 122.954C427.469 123.234 428.197 123.598 428.841 124.046C429.485 124.494 430.003 125.054 430.395 125.726C430.787 126.398 430.983 127.238 430.983 128.246C430.983 129.394 430.675 130.444 430.059 131.396C429.443 132.32 428.547 133.062 427.371 133.622C426.223 134.154 424.837 134.42 423.213 134.42C422.009 134.42 420.903 134.308 419.895 134.084C418.915 133.888 418.019 133.622 417.207 133.286C416.423 132.95 415.723 132.558 415.107 132.11V128.288H417.627V132.782C417.431 132.614 417.263 132.446 417.123 132.278C416.983 132.082 416.885 131.9 416.829 131.732C416.773 131.564 416.731 131.396 416.703 131.228C416.703 131.06 416.717 130.892 416.745 130.724C417.305 131.256 417.907 131.676 418.551 131.984C419.223 132.292 419.937 132.53 420.693 132.698C421.477 132.838 422.317 132.908 423.213 132.908C424.361 132.908 425.341 132.74 426.153 132.404C426.965 132.04 427.595 131.536 428.043 130.892C428.519 130.248 428.757 129.492 428.757 128.624ZM451.948 128.624C451.948 127.868 451.78 127.238 451.444 126.734C451.136 126.23 450.688 125.824 450.1 125.516C449.54 125.18 448.896 124.9 448.168 124.676C447.468 124.424 446.74 124.186 445.984 123.962C445.144 123.738 444.318 123.486 443.506 123.206C442.722 122.926 441.994 122.562 441.322 122.114C440.678 121.666 440.16 121.106 439.768 120.434C439.376 119.762 439.18 118.922 439.18 117.914C439.18 116.766 439.474 115.772 440.062 114.932C440.65 114.064 441.476 113.392 442.54 112.916C443.632 112.412 444.92 112.16 446.404 112.16C447.524 112.16 448.504 112.258 449.344 112.454C450.212 112.65 450.94 112.902 451.528 113.21C452.116 113.49 452.592 113.77 452.956 114.05V117.62H450.478V114.134C450.618 114.19 450.744 114.274 450.856 114.386C450.996 114.47 451.108 114.582 451.192 114.722C451.276 114.834 451.332 114.974 451.36 115.142C451.388 115.282 451.402 115.422 451.402 115.562C451.038 115.17 450.604 114.834 450.1 114.554C449.624 114.274 449.064 114.064 448.42 113.924C447.804 113.756 447.132 113.672 446.404 113.672C444.752 113.672 443.506 114.05 442.666 114.806C441.826 115.562 441.406 116.514 441.406 117.662C441.406 118.39 441.574 119.006 441.91 119.51C442.246 119.986 442.694 120.378 443.254 120.686C443.814 120.966 444.458 121.218 445.186 121.442C445.914 121.666 446.656 121.89 447.412 122.114C448.224 122.366 449.036 122.646 449.848 122.954C450.66 123.234 451.388 123.598 452.032 124.046C452.676 124.494 453.194 125.054 453.586 125.726C453.978 126.398 454.174 127.238 454.174 128.246C454.174 129.394 453.866 130.444 453.25 131.396C452.634 132.32 451.738 133.062 450.562 133.622C449.414 134.154 448.028 134.42 446.404 134.42C445.2 134.42 444.094 134.308 443.086 134.084C442.106 133.888 441.21 133.622 440.398 133.286C439.614 132.95 438.914 132.558 438.298 132.11V128.288H440.818V132.782C440.622 132.614 440.454 132.446 440.314 132.278C440.174 132.082 440.076 131.9 440.02 131.732C439.964 131.564 439.922 131.396 439.894 131.228C439.894 131.06 439.908 130.892 439.936 130.724C440.496 131.256 441.098 131.676 441.742 131.984C442.414 132.292 443.128 132.53 443.884 132.698C444.668 132.838 445.508 132.908 446.404 132.908C447.552 132.908 448.532 132.74 449.344 132.404C450.156 132.04 450.786 131.536 451.234 130.892C451.71 130.248 451.948 129.492 451.948 128.624ZM464.14 134.336C463.552 134.336 463.076 134.168 462.712 133.832C462.348 133.496 462.166 133.048 462.166 132.488C462.166 131.9 462.348 131.438 462.712 131.102C463.076 130.766 463.552 130.598 464.14 130.598C464.7 130.598 465.162 130.766 465.526 131.102C465.89 131.438 466.072 131.9 466.072 132.488C466.072 133.048 465.89 133.496 465.526 133.832C465.162 134.168 464.7 134.336 464.14 134.336Z" fill="#5D0000" fill-opacity="0.67"/>
</svg>
