<svg width="97" height="24" viewBox="0 0 97 24" fill="none" xmlns="http://www.w3.org/2000/svg">
<g clip-path="url(#clip0_16_4)">
<path d="M5.436 12.296C5.836 12.296 6.148 12.148 6.372 11.852C6.604 11.556 6.72 11.148 6.72 10.628C6.72 10.028 6.576 9.54 6.288 9.164C6 8.788 5.576 8.6 5.016 8.6C4.664 8.6 4.336 8.708 4.032 8.924V15.692L6.18 16.124L5.748 17H0.528V16.232L1.656 15.344V8.84L0.312 8.432L0.744 7.568H2.916C3.612 7.568 4.296 7.544 4.968 7.496C5.448 7.464 5.808 7.448 6.048 7.448C6.688 7.448 7.256 7.572 7.752 7.82C8.248 8.06 8.632 8.396 8.904 8.828C9.176 9.252 9.312 9.728 9.312 10.256C9.312 10.832 9.084 11.376 8.628 11.888C8.18 12.392 7.612 12.792 6.924 13.088C6.244 13.376 5.58 13.504 4.932 13.472L4.428 13.16L4.86 12.296H5.436ZM22.0191 16.988H19.3071L17.0991 12.872L16.5831 12.56L16.9071 11.912H17.4351C17.8271 11.912 18.1351 11.78 18.3591 11.516C18.5911 11.252 18.7071 10.884 18.7071 10.412C18.7071 9.876 18.5631 9.44 18.2751 9.104C17.9951 8.76 17.5831 8.588 17.0391 8.588C16.6951 8.588 16.3791 8.688 16.0911 8.888V15.74L17.4471 16.112L17.0151 16.988H12.5871V16.22L13.7151 15.248V8.78L12.3711 8.42L12.8031 7.556H14.9751C15.6551 7.556 16.3311 7.532 17.0031 7.484C17.4831 7.452 17.8391 7.436 18.0711 7.436C18.7031 7.436 19.2631 7.548 19.7511 7.772C20.2471 7.988 20.6271 8.288 20.8911 8.672C21.1631 9.048 21.2991 9.472 21.2991 9.944C21.2991 10.496 21.0591 11.012 20.5791 11.492C20.0991 11.964 19.5031 12.328 18.7911 12.584L19.7991 12.86L21.2631 15.572L22.4631 16.112L22.0191 16.988ZM31.1316 7.328C32.0756 7.328 32.9076 7.532 33.6276 7.94C34.3476 8.348 34.9036 8.912 35.2956 9.632C35.6876 10.352 35.8836 11.168 35.8836 12.08C35.8836 13.016 35.5836 13.88 34.9836 14.672C34.3916 15.464 33.6556 16.092 32.7756 16.556C31.8956 17.012 31.0636 17.24 30.2796 17.24C29.3436 17.24 28.5156 17.04 27.7956 16.64C27.0836 16.232 26.5276 15.668 26.1276 14.948C25.7356 14.228 25.5396 13.412 25.5396 12.5C25.5396 11.564 25.8356 10.7 26.4276 9.908C27.0196 9.108 27.7556 8.48 28.6356 8.024C29.5156 7.56 30.3476 7.328 31.1316 7.328ZM30.4356 8.828C30.0116 8.828 29.6236 8.964 29.2716 9.236C28.9196 9.5 28.6396 9.868 28.4316 10.34C28.2316 10.812 28.1316 11.34 28.1316 11.924C28.1316 12.628 28.2356 13.268 28.4436 13.844C28.6516 14.42 28.9676 14.88 29.3916 15.224C29.8236 15.568 30.3516 15.74 30.9756 15.74C31.3996 15.74 31.7876 15.608 32.1396 15.344C32.4916 15.072 32.7716 14.7 32.9796 14.228C33.1876 13.756 33.2916 13.228 33.2916 12.644C33.2916 11.94 33.1876 11.3 32.9796 10.724C32.7716 10.14 32.4516 9.68 32.0196 9.344C31.5876 9 31.0596 8.828 30.4356 8.828ZM44.4843 12.296C44.8843 12.296 45.1963 12.148 45.4203 11.852C45.6523 11.556 45.7683 11.148 45.7683 10.628C45.7683 10.028 45.6243 9.54 45.3363 9.164C45.0483 8.788 44.6243 8.6 44.0643 8.6C43.7123 8.6 43.3843 8.708 43.0803 8.924V15.692L45.2283 16.124L44.7963 17H39.5763V16.232L40.7043 15.344V8.84L39.3603 8.432L39.7923 7.568H41.9643C42.6603 7.568 43.3443 7.544 44.0163 7.496C44.4963 7.464 44.8563 7.448 45.0963 7.448C45.7363 7.448 46.3043 7.572 46.8003 7.82C47.2963 8.06 47.6803 8.396 47.9523 8.828C48.2243 9.252 48.3603 9.728 48.3603 10.256C48.3603 10.832 48.1323 11.376 47.6763 11.888C47.2283 12.392 46.6603 12.792 45.9723 13.088C45.2923 13.376 44.6283 13.504 43.9803 13.472L43.4763 13.16L43.9083 12.296H44.4843ZM59.3273 17H51.6353V16.232L52.7633 15.344V8.816L51.4193 8.432L51.8513 7.568H59.2073L60.1433 7.352V10.496L59.3873 10.82L57.8993 8.6H55.1393V11.672H56.4353L57.3113 10.376H58.0793V13.832L57.2033 14.264L56.4113 12.692H55.1393V15.968H57.7913L59.5073 13.508L60.2633 13.82V17.216L59.3273 17ZM71.8105 17.012H64.0225V16.244L65.1505 15.356V8.768L63.8065 8.432L64.2385 7.568H68.6665V8.324L67.5265 9.212V15.968H70.1065L71.9905 13.268L72.7465 13.58V17.228L71.8105 17.012Z" fill="#5D0000"/>
<circle cx="89.5" cy="12" r="7.5" fill="#FF6B66"/>
</g>
<defs>
<clipPath id="clip0_16_4">
<rect width="97" height="24" fill="white"/>
</clipPath>
</defs>
</svg>
